# xmcd CD database file
#
# Track frame offsets:
#	150
#	17143
#	35674
#	55884
#	81015
#	97057
#	117100
#	137125
#	157881
#	178290
#	205090
#	224183
#
# Disc length: 3188 seconds
#
# Revision: 0
# Processed by: cddbd v1.5.2PL0 Copyright (c) Steve Scherf et al.
# Submitted via: CDex 1.70beta2
#
DISCID=ae0c720c
DTITLE=Keiko Matsui - Mayo
DYEAR=2007
DGENRE=Jazz
TTITLE0=Moyo (Heart And Soul) (Feat. Richard Bona)
TTITLE1=A Great Romance
TTITLE2=Into The Night (Feat. Gerald Albright)
TTITLE3=Caricias
TTITLE4=An Evening In Gibraltar (Feat. Hugh Masakela)
TTITLE5=When I Close My Eyes
TTITLE6=After The Rain (Feat. Paul Taylor)
TTITLE7=Allure (Feat. Gerald Albright)
TTITLE8=Black River (Feat. Paul Taylor)
TTITLE9=Old Potch Road (Feat. Hugh Masakela)
TTITLE10=Um Novo Dia (A New Day) (Feat. Waldemar Bastos)
TTITLE11=Marula
EXTD=YEAR: 2007
EXTT0=
EXTT1=
EXTT2=
EXTT3=
EXTT4=
EXTT5=
EXTT6=
EXTT7=
EXTT8=
EXTT9=
EXTT10=
EXTT11=
PLAYORDER=
